#N canvas 1912 -8 1920 997 10;
#X obj 165 292 makenote 64 250;
#X obj 165 316 noteout 1;
#X msg 166 266 64;
#X msg 214 267 71;
#X obj 167 245 t b b;
#X obj 166 208 spigot;
#X floatatom 82 225 5 0 0 0 - - -;
#X text 210 199 Open & close (rightInlet);
#X floatatom 120 30 5 0 0 0 - - -;
#X floatatom 166 133 5 0 0 0 - - -;
#X obj 121 135 bng 15 250 50 0 empty empty empty 17 7 0 10 -262144
-1 -1;
#X obj 121 108 > 100;
#X obj 491 289 makenote 64 250;
#X obj 491 314 noteout 1;
#X msg 577 222 64;
#X msg 625 223 71;
#X obj 578 201 t b b;
#X msg 442 219 60;
#X msg 482 221 67;
#X obj 442 188 t b b;
#X obj 449 122 bng 15 250 50 0 empty empty empty 17 7 0 10 -262144
-1 -1;
#X obj 574 120 bng 15 250 50 0 empty empty empty 17 7 0 10 -262144
-1 -1;
#X obj 449 76 moses 50;
#X floatatom 565 92 5 0 0 0 - - -;
#X floatatom 427 27 5 0 0 0 - - -;
#X floatatom 514 143 5 0 0 0 - - -;
#X text 449 60 If its less or more;
#X msg 515 26 75;
#X connect 0 0 1 0;
#X connect 0 1 1 1;
#X connect 2 0 0 0;
#X connect 3 0 0 0;
#X connect 4 0 2 0;
#X connect 4 1 3 0;
#X connect 5 0 4 0;
#X connect 5 0 6 0;
#X connect 8 0 11 0;
#X connect 9 0 5 1;
#X connect 9 0 5 0;
#X connect 11 0 9 0;
#X connect 11 0 10 0;
#X connect 12 0 13 0;
#X connect 12 1 13 1;
#X connect 14 0 12 0;
#X connect 15 0 12 0;
#X connect 16 0 14 0;
#X connect 16 1 15 0;
#X connect 17 0 12 0;
#X connect 18 0 12 0;
#X connect 19 0 17 0;
#X connect 19 0 18 0;
#X connect 20 0 19 0;
#X connect 21 0 16 0;
#X connect 22 0 20 0;
#X connect 22 0 25 0;
#X connect 22 1 21 0;
#X connect 22 1 23 0;
#X connect 24 0 22 0;
#X connect 27 0 22 1;
