#N canvas 1912 -8 1920 997 10;
#X floatatom 38 110 5 0 0 0 - - -;
#X floatatom 82 109 5 0 0 0 - - -;
#X obj 244 85 ctlin;
#X floatatom 243 114 5 0 0 0 - - -;
#X floatatom 278 114 5 0 0 0 - - -;
#X floatatom 313 114 5 0 0 0 - - -;
#X obj 38 137 s key;
#X obj 41 256 r key;
#X obj 79 256 r velo;
#X obj 82 137 s velo;
#X floatatom 41 301 5 0 0 0 - - -;
#X floatatom 80 301 5 0 0 0 - - -;
#X floatatom 128 308 5 0 0 0 - - -;
#X floatatom 473 140 5 0 0 0 - - -;
#X floatatom 519 141 5 0 0 0 - - -;
#X obj 473 84 ctlin 17;
#X obj 128 256 r knob;
#X obj 475 189 s knob;
#X obj 40 407 noteout;
#X floatatom 141 108 5 0 0 0 - - -;
#X floatatom 192 109 5 0 0 0 - - -;
#X obj 141 86 notein 10;
#X text 40 64 Keys;
#X text 149 64 DrumPad;
#X text 244 61 Knobs;
#X text 476 59 Duration;
#X obj 326 284 vsl 15 128 0 127 0 0 empty empty empty 0 -9 0 10 -262144
-1 -1 0 1;
#X obj 329 254 r knob;
#X obj 235 310 bng 15 250 50 0 empty empty empty 17 7 0 10 -262144
-1 -1;
#X obj 140 156 s pad;
#X obj 234 254 r pad;
#X obj 38 86 notein 1;
#X text 51 23 MIDI_IN;
#X text 46 221 MIDI_OUT;
#X obj 128 280 * 10;
#X obj 41 351 makenote;
#X obj 690 146 netsend;
#X floatatom 699 100 5 0 0 0 - - -;
#X floatatom 690 169 5 0 0 0 - - -;
#X text 699 46 NetworkCommunication;
#X obj 1156 151 metro 500;
#X obj 1156 184 bng 15 250 50 0 empty empty empty 17 7 0 10 -262144
-1 -1;
#X msg 1139 100 0;
#X msg 1139 119 1;
#X msg 974 126 stop;
#X msg 974 102 bang;
#X text 1028 76 MasterClock;
#X floatatom 1157 262 5 0 0 0 - - -;
#X obj 1158 290 % 8;
#X floatatom 1156 326 5 0 0 0 - - -;
#X text 1199 326 Takt;
#X obj 1156 214 i;
#X obj 1200 215 + 1;
#X obj 979 369 netsend;
#X floatatom 980 406 5 0 0 0 - - -;
#X msg 979 265 connect localhost 7400;
#X msg 1019 343 send MasterTakt \$1;
#X obj 689 210 netreceive 13001;
#X floatatom 689 281 5 0 0 0 - - -;
#X obj 698 234 print received;
#X obj 958 476 print received;
#X obj 1055 451 netreceive 7400;
#X floatatom 1195 527 5 0 0 0 - - -;
#X obj 1195 490 route MasterTakt;
#X msg 690 79 connect localhost 13001;
#X obj 1061 533 print received;
#X obj 140 131 route 40 41;
#X obj 243 134 route 40 41;
#X msg 699 122 send var1 \$1;
#X obj 689 258 route var1;
#X connect 0 0 6 0;
#X connect 1 0 9 0;
#X connect 2 0 3 0;
#X connect 2 1 4 0;
#X connect 2 2 5 0;
#X connect 7 0 10 0;
#X connect 8 0 11 0;
#X connect 10 0 35 0;
#X connect 11 0 35 1;
#X connect 12 0 35 2;
#X connect 13 0 17 0;
#X connect 15 0 13 0;
#X connect 15 1 14 0;
#X connect 16 0 34 0;
#X connect 19 0 66 0;
#X connect 21 0 19 0;
#X connect 21 1 20 0;
#X connect 27 0 26 0;
#X connect 30 0 28 0;
#X connect 31 0 0 0;
#X connect 31 1 1 0;
#X connect 34 0 12 0;
#X connect 35 0 18 0;
#X connect 35 1 18 1;
#X connect 36 0 38 0;
#X connect 37 0 68 0;
#X connect 40 0 41 0;
#X connect 41 0 51 0;
#X connect 42 0 40 0;
#X connect 43 0 40 0;
#X connect 44 0 40 0;
#X connect 45 0 40 0;
#X connect 47 0 48 0;
#X connect 48 0 49 0;
#X connect 49 0 56 0;
#X connect 51 0 52 0;
#X connect 51 0 47 0;
#X connect 52 0 51 1;
#X connect 53 0 54 0;
#X connect 55 0 53 0;
#X connect 56 0 53 0;
#X connect 57 0 59 0;
#X connect 57 0 69 0;
#X connect 61 0 63 0;
#X connect 61 0 65 0;
#X connect 63 0 62 0;
#X connect 64 0 36 0;
#X connect 66 0 29 0;
#X connect 68 0 36 0;
#X connect 69 0 58 0;
