#N canvas -8 -8 1920 997 10;
#X floatatom 38 147 5 0 0 0 - - -;
#X floatatom 74 147 5 0 0 0 - - -;
#X floatatom 110 146 5 0 0 0 - - -;
#X obj 333 84 ctlin;
#X floatatom 333 140 5 0 0 0 - - -;
#X floatatom 369 141 5 0 0 0 - - -;
#X floatatom 406 141 5 0 0 0 - - -;
#X obj 39 182 s key;
#X obj 39 343 r key;
#X obj 77 343 r velo;
#X obj 77 182 s velo;
#X floatatom 39 388 5 0 0 0 - - -;
#X floatatom 78 388 5 0 0 0 - - -;
#X floatatom 126 395 5 0 0 0 - - -;
#X floatatom 473 140 5 0 0 0 - - -;
#X floatatom 519 141 5 0 0 0 - - -;
#X obj 473 84 ctlin 17;
#X obj 126 343 r knob;
#X obj 475 189 s knob;
#X obj 38 494 noteout;
#X floatatom 232 126 5 0 0 0 - - -;
#X floatatom 284 124 5 0 0 0 - - -;
#X obj 232 86 notein 10;
#X text 40 64 Keys;
#X text 240 64 DrumPad;
#X text 333 60 Knobs;
#X text 476 59 Duration;
#X obj 456 373 vsl 15 128 0 127 0 0 empty empty empty 0 -9 0 10 -262144
-1 -1 12700 1;
#X obj 459 343 r knob;
#X obj 233 397 bng 15 250 50 0 empty empty empty 17 7 0 10 -262144
-1 -1;
#X obj 233 160 route 40;
#X obj 236 204 s pad;
#X obj 232 341 r pad;
#X obj 38 86 notein 1;
#X text 51 23 MIDI_IN;
#X text 44 308 MIDI_OUT;
#X obj 126 367 * 10;
#X obj 39 438 makenote;
#X connect 0 0 7 0;
#X connect 1 0 10 0;
#X connect 3 0 4 0;
#X connect 3 1 5 0;
#X connect 3 2 6 0;
#X connect 8 0 11 0;
#X connect 9 0 12 0;
#X connect 11 0 37 0;
#X connect 12 0 37 1;
#X connect 13 0 37 2;
#X connect 14 0 18 0;
#X connect 16 0 14 0;
#X connect 16 1 15 0;
#X connect 17 0 36 0;
#X connect 20 0 30 0;
#X connect 22 0 20 0;
#X connect 22 1 21 0;
#X connect 28 0 27 0;
#X connect 30 0 31 0;
#X connect 32 0 29 0;
#X connect 33 0 0 0;
#X connect 33 1 1 0;
#X connect 36 0 13 0;
#X connect 37 0 19 0;
#X connect 37 1 19 1;
