#N canvas 1913 0 958 988 10;
#X obj 16 156 metro 500;
#X floatatom 50 134 4 0 0 0 - - -;
#X msg 16 62 1;
#X text 46 62 nonzero number or "bang" to start;
#X msg 16 109 0;
#X msg 16 86 bang;
#X msg 16 133 stop;
#X obj 16 180 bng 25 250 50 0 empty empty empty 17 7 0 10 -262144 -1
-1;
#X text 50 156 <-- optional creation arguments:;
#X msg 57 108 tempo 2 msec;
#X text 46 84 zero or "stop" to stop;
#X connect 0 0 7 0;
#X connect 1 0 0 1;
#X connect 2 0 0 0;
#X connect 4 0 0 0;
#X connect 5 0 0 0;
#X connect 6 0 0 0;
#X connect 9 0 0 0;
