#N canvas 1912 -8 1920 997 10;
#X obj 190 87 metro 500;
#X obj 189 142 bng 15 250 50 0 empty empty empty 17 7 0 10 -262144
-1 -1;
#X msg 184 41 0;
#X msg 254 40 1;
#X msg 300 43 stop;
#X msg 101 33 bang;
#X obj 440 338 metro;
#X msg 459 184 60000;
#X floatatom 527 188 5 0 0 0 - - -;
#X obj 480 226 /;
#X obj 437 138 t b b b;
#X obj 439 100 bng 15 250 50 0 empty empty empty 17 7 0 10 -262144
-1 -1;
#X floatatom 533 259 5 0 0 0 - - -;
#X obj 481 258 i;
#X floatatom 531 299 5 0 0 0 - - -;
#X msg 401 100 0;
#X obj 442 399 bng 15 250 50 0 empty empty empty 17 7 0 10 -262144
-1 -1;
#X msg 526 132 60;
#X obj 484 64 loadbang;
#X obj 487 364 i;
#X obj 531 365 + 1;
#X floatatom 374 391 5 0 0 0 - - -;
#X floatatom 492 401 5 0 0 0 - - -;
#X obj 493 429 % 8;
#X floatatom 491 465 5 0 0 0 - - -;
#X msg 500 332 0;
#X text 563 187 Beats/Min;
#X text 578 367 Loop;
#X text 534 465 Takt;
#X connect 0 0 1 0;
#X connect 2 0 0 0;
#X connect 3 0 0 0;
#X connect 4 0 0 0;
#X connect 5 0 0 0;
#X connect 6 0 16 0;
#X connect 6 0 19 0;
#X connect 6 0 21 0;
#X connect 7 0 9 0;
#X connect 8 0 9 1;
#X connect 9 0 12 0;
#X connect 9 0 13 0;
#X connect 10 0 6 0;
#X connect 10 1 7 0;
#X connect 10 2 8 0;
#X connect 11 0 10 0;
#X connect 11 0 25 0;
#X connect 13 0 14 0;
#X connect 13 0 6 1;
#X connect 15 0 6 0;
#X connect 17 0 8 0;
#X connect 18 0 17 0;
#X connect 19 0 20 0;
#X connect 19 0 22 0;
#X connect 20 0 19 1;
#X connect 22 0 23 0;
#X connect 23 0 24 0;
#X connect 25 0 19 1;
