#N canvas 1912 -8 1920 997 10;
#X obj 313 191 makenote 80 500;
#X obj 315 237 noteout 1;
#X msg 308 114 60;
#X msg 344 114 64;
#X msg 383 115 67;
#X obj 314 62 t b b b;
#X obj 319 28 bng 15 250 50 0 empty empty empty 17 7 0 10 -262144 -1
-1;
#X msg 456 123 500;
#X text 501 121 Duration;
#X msg 207 153 60 64 67;
#X obj 506 238 noteout 1;
#X msg 556 170 60 0;
#X msg 506 170 60 50;
#X text 522 152 With Velo;
#X connect 0 0 1 0;
#X connect 0 1 1 1;
#X connect 2 0 0 0;
#X connect 3 0 0 0;
#X connect 4 0 0 0;
#X connect 5 0 2 0;
#X connect 5 1 3 0;
#X connect 5 2 4 0;
#X connect 6 0 5 0;
#X connect 7 0 0 2;
#X connect 9 0 0 0;
#X connect 11 0 10 0;
#X connect 12 0 10 0;
