#N canvas 1912 -8 1920 997 10;
#X obj 186 127 metro 500;
#X obj 187 90 tgl 15 0 empty empty empty 17 7 0 10 -262144 -1 -1 0
1;
#X obj 189 418 makenote 64 250;
#X obj 188 456 noteout 1;
#X msg 186 377 60;
#X msg 226 377 62;
#X msg 288 377 64;
#X msg 342 377 65;
#X msg 408 377 67;
#X msg 445 377 69;
#X msg 486 379 70;
#X msg 548 377 72;
#X msg 236 71 250;
#X msg 297 71 1500;
#X obj 138 132 bng 15 250 50 0 empty empty empty 17 7 0 10 -262144
-1 -1;
#X msg 266 71 500;
#X msg 186 205 1;
#X obj 186 224 +;
#X floatatom 216 225 5 0 0 0 - - -;
#X floatatom 185 280 5 0 0 0 - - -;
#X obj 185 306 sel 0 1 2 3 4 5 6 7 8 9 10 11 12 13 14;
#X obj 185 249 % 16;
#X connect 0 0 14 0;
#X connect 0 0 16 0;
#X connect 1 0 0 0;
#X connect 2 0 3 0;
#X connect 2 1 3 1;
#X connect 4 0 2 0;
#X connect 5 0 2 0;
#X connect 6 0 2 0;
#X connect 7 0 2 0;
#X connect 8 0 2 0;
#X connect 9 0 2 0;
#X connect 10 0 2 0;
#X connect 11 0 2 0;
#X connect 12 0 0 1;
#X connect 13 0 0 1;
#X connect 15 0 0 1;
#X connect 16 0 17 0;
#X connect 17 0 18 0;
#X connect 18 0 17 1;
#X connect 18 0 21 0;
#X connect 19 0 20 0;
#X connect 20 0 4 0;
#X connect 20 1 5 0;
#X connect 20 2 6 0;
#X connect 20 3 7 0;
#X connect 20 4 8 0;
#X connect 20 5 7 0;
#X connect 20 6 6 0;
#X connect 20 7 5 0;
#X connect 20 8 4 0;
#X connect 20 9 5 0;
#X connect 20 10 6 0;
#X connect 20 11 7 0;
#X connect 20 12 6 0;
#X connect 20 13 5 0;
#X connect 20 14 5 0;
#X connect 21 0 19 0;
